TITLE ""
FILE "Step3_Track50.mp3" MP3
  TRACK 01 AUDIO
    TITLE "Step3_Track50_01"
    INDEX 01 00:00:00
  TRACK 02 AUDIO
    TITLE "Step3_Track50_02"
    INDEX 01 00:00:24
  TRACK 03 AUDIO
    TITLE "Step3_Track50_03"
    INDEX 01 00:01:57
  TRACK 04 AUDIO
    TITLE "Step3_Track50_04"
    INDEX 01 00:02:27
  TRACK 05 AUDIO
    TITLE "Step3_Track50_05"
    INDEX 01 00:03:28
  TRACK 06 AUDIO
    TITLE "Step3_Track50_06"
    INDEX 01 00:03:40
  TRACK 07 AUDIO
    TITLE "Step3_Track50_07"
    INDEX 01 00:06:31
  TRACK 08 AUDIO
    TITLE "Step3_Track50_08"
    INDEX 01 00:06:48
  TRACK 09 AUDIO
    TITLE "Step3_Track50_09"
    INDEX 01 00:07:44
  TRACK 10 AUDIO
    TITLE "Step3_Track50_10"
    INDEX 01 00:07:57
  TRACK 11 AUDIO
    TITLE "Step3_Track50_11"
    INDEX 01 00:10:03
  TRACK 12 AUDIO
    TITLE "Step3_Track50_12"
    INDEX 01 00:10:40
  TRACK 13 AUDIO
    TITLE "Step3_Track50_13"
    INDEX 01 00:11:36
  TRACK 14 AUDIO
    TITLE "Step3_Track50_14"
    INDEX 01 00:11:38
  TRACK 15 AUDIO
    TITLE "Step3_Track50_15"
    INDEX 01 00:14:07
  TRACK 16 AUDIO
    TITLE "Step3_Track50_16"
    INDEX 01 00:14:32
  TRACK 17 AUDIO
    TITLE "Step3_Track50_17"
    INDEX 01 00:15:31
  TRACK 18 AUDIO
    TITLE "Step3_Track50_18"
    INDEX 01 00:15:47
  TRACK 19 AUDIO
    TITLE "Step3_Track50_19"
    INDEX 01 00:18:67
  TRACK 20 AUDIO
    TITLE "Step3_Track50_20"
    INDEX 01 00:19:17
  TRACK 21 AUDIO
    TITLE "Step3_Track50_21"
    INDEX 01 00:20:11
  TRACK 22 AUDIO
    TITLE "Step3_Track50_22"
    INDEX 01 00:20:31
  TRACK 23 AUDIO
    TITLE "Step3_Track50_23"
    INDEX 01 00:22:55
  TRACK 24 AUDIO
    TITLE "Step3_Track50_24"
    INDEX 01 00:23:07
  TRACK 25 AUDIO
    TITLE "Step3_Track50_25"
    INDEX 01 00:24:09
  TRACK 26 AUDIO
    TITLE "Step3_Track50_26"
    INDEX 01 00:24:19
  TRACK 27 AUDIO
    TITLE "Step3_Track50_27"
    INDEX 01 00:26:29
  TRACK 28 AUDIO
    TITLE "Step3_Track50_28"
    INDEX 01 00:26:45
  TRACK 29 AUDIO
    TITLE "Step3_Track50_29"
    INDEX 01 00:27:48
  TRACK 30 AUDIO
    TITLE "Step3_Track50_30"
    INDEX 01 00:27:60
  TRACK 31 AUDIO
    TITLE "Step3_Track50_31"
    INDEX 01 00:30:39
  TRACK 32 AUDIO
    TITLE "Step3_Track50_32"
    INDEX 01 00:30:56
  TRACK 33 AUDIO
    TITLE "Step3_Track50_33"
    INDEX 01 00:31:46
  TRACK 34 AUDIO
    TITLE "Step3_Track50_34"
    INDEX 01 00:31:62
  TRACK 35 AUDIO
    TITLE "Step3_Track50_35"
    INDEX 01 00:34:13
  TRACK 36 AUDIO
    TITLE "Step3_Track50_36"
    INDEX 01 00:34:35
  TRACK 37 AUDIO
    TITLE "Step3_Track50_37"
    INDEX 01 00:35:38
  TRACK 38 AUDIO
    TITLE "Step3_Track50_38"
    INDEX 01 00:35:52
  TRACK 39 AUDIO
    TITLE "Step3_Track50_39"
    INDEX 01 00:38:07
  TRACK 40 AUDIO
    TITLE "Step3_Track50_40"
    INDEX 01 00:38:27
  TRACK 41 AUDIO
    TITLE "Step3_Track50_41"
    INDEX 01 00:39:24
  TRACK 42 AUDIO
    TITLE "Step3_Track50_42"
    INDEX 01 00:39:42
  TRACK 43 AUDIO
    TITLE "Step3_Track50_43"
    INDEX 01 00:41:68
